<mxfile host="app.diagrams.net" modified="2024-06-05T10:40:16.543Z" agent="Mozilla/5.0 (Macintosh; Intel Mac OS X 10_15_7) AppleWebKit/537.36 (KHTML, like Gecko) Chrome/125.0.0.0 Safari/537.36" etag="n7SDmPAJ18497o-EjqDg" version="24.4.13" type="github">
  <diagram name="Page-1" id="h92sVHRr6hwZS7RC69yp">
    <mxGraphModel dx="1026" dy="998" grid="0" gridSize="10" guides="1" tooltips="1" connect="1" arrows="1" fold="1" page="0" pageScale="1" pageWidth="827" pageHeight="1169" math="0" shadow="0">
      <root>
        <mxCell id="0" />
        <mxCell id="1" parent="0" />
        <mxCell id="BTSxETkFsqKTAE7wOmVA-1" value="&lt;h3 style=&quot;font-size: 18px;&quot;&gt;Designing the Search Functionality for a Social Media Application&lt;/h3&gt;&lt;h4&gt;&lt;/h4&gt;" style="text;html=1;align=center;verticalAlign=middle;whiteSpace=wrap;rounded=0;" vertex="1" parent="1">
          <mxGeometry x="60" y="10" width="610" height="30" as="geometry" />
        </mxCell>
        <mxCell id="BTSxETkFsqKTAE7wOmVA-3" value="&lt;h1 style=&quot;margin-top: 0px; font-size: 16px;&quot;&gt;&lt;br&gt;&lt;/h1&gt;&lt;div&gt;&lt;font style=&quot;font-size: 16px;&quot;&gt;&lt;p&gt;&lt;strong&gt;Functional Requirements:&lt;/strong&gt;&lt;/p&gt;&lt;ol&gt;&lt;li&gt;&lt;p&gt;&lt;strong&gt;Search Term Input:&lt;/strong&gt;&lt;/p&gt;&lt;ul&gt;&lt;li&gt;Allow users to input a search term.&lt;/li&gt;&lt;li&gt;Trigger search queries as the user types (auto-suggestions).&lt;/li&gt;&lt;/ul&gt;&lt;/li&gt;&lt;li&gt;&lt;p&gt;&lt;strong&gt;Search Results:&lt;/strong&gt;&lt;/p&gt;&lt;ul&gt;&lt;li&gt;Fetch and display search results based on the input term.&lt;/li&gt;&lt;li&gt;Show results as a list of relevant items (e.g., users, posts, hashtags).&lt;/li&gt;&lt;/ul&gt;&lt;/li&gt;&lt;li&gt;&lt;p&gt;&lt;strong&gt;Auto-Suggestions:&lt;/strong&gt;&lt;/p&gt;&lt;ul&gt;&lt;li&gt;Provide auto-suggestions as the user types.&lt;/li&gt;&lt;li&gt;Display suggested search terms in a dropdown.&lt;/li&gt;&lt;/ul&gt;&lt;/li&gt;&lt;/ol&gt;&lt;p&gt;&lt;strong&gt;Non-Functional Requirements:&lt;/strong&gt;&lt;/p&gt;&lt;ol&gt;&lt;li&gt;&lt;p&gt;&lt;strong&gt;Performance:&lt;/strong&gt;&lt;/p&gt;&lt;ul&gt;&lt;li&gt;Low latency in fetching and displaying results and suggestions.&lt;/li&gt;&lt;li&gt;Efficient indexing and querying to handle high search volumes.&lt;/li&gt;&lt;/ul&gt;&lt;/li&gt;&lt;li&gt;&lt;p&gt;&lt;strong&gt;Scalability:&lt;/strong&gt;&lt;/p&gt;&lt;ul&gt;&lt;li&gt;Support a large number of concurrent search queries.&lt;/li&gt;&lt;li&gt;Scale horizontally to handle increasing load.&lt;/li&gt;&lt;/ul&gt;&lt;/li&gt;&lt;li&gt;&lt;p&gt;&lt;strong&gt;Accuracy:&lt;/strong&gt;&lt;/p&gt;&lt;ul&gt;&lt;li&gt;Provide relevant and accurate search results and suggestions.&lt;/li&gt;&lt;li&gt;Implement ranking algorithms to prioritize results.&lt;/li&gt;&lt;/ul&gt;&lt;/li&gt;&lt;li&gt;&lt;p&gt;&lt;strong&gt;Reliability:&lt;/strong&gt;&lt;/p&gt;&lt;/li&gt;&lt;ul&gt;&lt;li&gt;Ensure consistent and reliable search functionality.&lt;/li&gt;&lt;li&gt;Implement fallback mechanisms for failures.&lt;/li&gt;&lt;/ul&gt;&lt;/ol&gt;&lt;div&gt;&lt;br&gt;&lt;/div&gt;&lt;div&gt;&lt;h3&gt;High-Level Architecture:&lt;/h3&gt;&lt;ol&gt;&lt;li&gt;&lt;p&gt;&lt;strong&gt;Client-Side Components:&lt;/strong&gt;&lt;/p&gt;&lt;ul&gt;&lt;li&gt;&lt;strong&gt;Search Manager:&lt;/strong&gt; Handles search input, triggers queries, and processes results.&lt;/li&gt;&lt;li&gt;&lt;strong&gt;Auto-Suggestion Manager:&lt;/strong&gt; Manages and displays auto-suggestions.&lt;/li&gt;&lt;/ul&gt;&lt;/li&gt;&lt;li&gt;&lt;p&gt;&lt;strong&gt;Server-Side Components:&lt;/strong&gt;&lt;/p&gt;&lt;ul&gt;&lt;li&gt;&lt;strong&gt;Search Service:&lt;/strong&gt; Processes search queries and returns results.&lt;/li&gt;&lt;li&gt;&lt;strong&gt;Auto-Suggestion Service:&lt;/strong&gt; Provides suggestions based on partial input.&lt;/li&gt;&lt;li&gt;&lt;strong&gt;Indexing Service:&lt;/strong&gt; Maintains and updates search indexes.&lt;/li&gt;&lt;li&gt;&lt;strong&gt;Database:&lt;/strong&gt; Stores data for indexing (e.g., users, posts, hashtags).&lt;/li&gt;&lt;/ul&gt;&lt;/li&gt;&lt;/ol&gt;&lt;h3&gt;&lt;/h3&gt;&lt;/div&gt;&lt;div&gt;&lt;br&gt;&lt;/div&gt;&lt;div&gt;&lt;br&gt;&lt;/div&gt;&lt;div&gt;&lt;br&gt;&lt;/div&gt;&lt;div&gt;&lt;h3&gt;Flow Diagram&lt;br&gt;&lt;/h3&gt;&lt;/div&gt;&lt;div&gt;&lt;br&gt;&lt;/div&gt;&lt;div&gt;&lt;br&gt;&lt;/div&gt;&lt;/font&gt;&lt;/div&gt;&lt;p&gt;&lt;/p&gt;" style="text;html=1;whiteSpace=wrap;overflow=hidden;rounded=0;" vertex="1" parent="1">
          <mxGeometry x="49" y="48" width="649" height="1087" as="geometry" />
        </mxCell>
        <mxCell id="BTSxETkFsqKTAE7wOmVA-9" value="&lt;h3&gt;&lt;font style=&quot;font-size: 16px;&quot;&gt;UML Class Diagram&lt;/font&gt;&lt;/h3&gt;&lt;p&gt;&lt;/p&gt;" style="text;html=1;align=center;verticalAlign=middle;resizable=0;points=[];autosize=1;strokeColor=none;fillColor=none;" vertex="1" parent="1">
          <mxGeometry x="12" y="1191" width="168" height="59" as="geometry" />
        </mxCell>
        <mxCell id="BTSxETkFsqKTAE7wOmVA-19" style="edgeStyle=orthogonalEdgeStyle;rounded=0;orthogonalLoop=1;jettySize=auto;html=1;entryX=0;entryY=0.5;entryDx=0;entryDy=0;exitX=0;exitY=0.5;exitDx=0;exitDy=0;" edge="1" parent="1" source="BTSxETkFsqKTAE7wOmVA-10" target="BTSxETkFsqKTAE7wOmVA-15">
          <mxGeometry relative="1" as="geometry" />
        </mxCell>
        <mxCell id="BTSxETkFsqKTAE7wOmVA-10" value="onCreate()&lt;div&gt;render(state)&lt;/div&gt;" style="rounded=1;whiteSpace=wrap;html=1;" vertex="1" parent="1">
          <mxGeometry x="85" y="1317" width="140" height="76" as="geometry" />
        </mxCell>
        <mxCell id="BTSxETkFsqKTAE7wOmVA-11" value="&lt;b&gt;&lt;font style=&quot;font-size: 14px;&quot;&gt;View/SearchActivity&lt;/font&gt;&lt;/b&gt;" style="text;html=1;align=center;verticalAlign=middle;resizable=0;points=[];autosize=1;strokeColor=none;fillColor=none;" vertex="1" parent="1">
          <mxGeometry x="84" y="1290" width="151" height="29" as="geometry" />
        </mxCell>
        <mxCell id="BTSxETkFsqKTAE7wOmVA-24" style="edgeStyle=orthogonalEdgeStyle;rounded=0;orthogonalLoop=1;jettySize=auto;html=1;entryX=0;entryY=0.5;entryDx=0;entryDy=0;" edge="1" parent="1" source="BTSxETkFsqKTAE7wOmVA-15" target="BTSxETkFsqKTAE7wOmVA-20">
          <mxGeometry relative="1" as="geometry" />
        </mxCell>
        <mxCell id="BTSxETkFsqKTAE7wOmVA-15" value="state:LiveData&lt;div&gt;processIntent()&lt;/div&gt;&lt;div&gt;search(query)&lt;/div&gt;" style="rounded=1;whiteSpace=wrap;html=1;" vertex="1" parent="1">
          <mxGeometry x="85" y="1466" width="140" height="76" as="geometry" />
        </mxCell>
        <mxCell id="BTSxETkFsqKTAE7wOmVA-16" value="&lt;font style=&quot;font-size: 14px;&quot;&gt;SearchViewModel&lt;/font&gt;" style="text;html=1;align=center;verticalAlign=middle;resizable=0;points=[];autosize=1;strokeColor=none;fillColor=default;rounded=0;shadow=0;glass=0;fontStyle=1;textShadow=0;" vertex="1" parent="1">
          <mxGeometry x="94" y="1437" width="131" height="29" as="geometry" />
        </mxCell>
        <mxCell id="BTSxETkFsqKTAE7wOmVA-27" style="edgeStyle=orthogonalEdgeStyle;rounded=0;orthogonalLoop=1;jettySize=auto;html=1;entryX=0;entryY=0.5;entryDx=0;entryDy=0;" edge="1" parent="1" source="BTSxETkFsqKTAE7wOmVA-20" target="BTSxETkFsqKTAE7wOmVA-25">
          <mxGeometry relative="1" as="geometry" />
        </mxCell>
        <mxCell id="BTSxETkFsqKTAE7wOmVA-20" value="&lt;div&gt;search(query)&lt;/div&gt;&lt;div&gt;debounce()&lt;/div&gt;&lt;div&gt;handleSession()&lt;/div&gt;" style="rounded=1;whiteSpace=wrap;html=1;" vertex="1" parent="1">
          <mxGeometry x="84" y="1629" width="140" height="76" as="geometry" />
        </mxCell>
        <mxCell id="BTSxETkFsqKTAE7wOmVA-21" value="&lt;b&gt;&lt;font style=&quot;font-size: 14px;&quot;&gt;Search Manager&lt;/font&gt;&lt;/b&gt;" style="text;html=1;align=center;verticalAlign=middle;resizable=0;points=[];autosize=1;strokeColor=none;fillColor=none;" vertex="1" parent="1">
          <mxGeometry x="94" y="1600" width="126" height="29" as="geometry" />
        </mxCell>
        <mxCell id="BTSxETkFsqKTAE7wOmVA-28" style="edgeStyle=orthogonalEdgeStyle;rounded=0;orthogonalLoop=1;jettySize=auto;html=1;entryX=0;entryY=0.5;entryDx=0;entryDy=0;" edge="1" parent="1" source="BTSxETkFsqKTAE7wOmVA-25" target="BTSxETkFsqKTAE7wOmVA-29">
          <mxGeometry relative="1" as="geometry">
            <mxPoint x="337" y="1790" as="targetPoint" />
          </mxGeometry>
        </mxCell>
        <mxCell id="BTSxETkFsqKTAE7wOmVA-37" style="edgeStyle=orthogonalEdgeStyle;rounded=0;orthogonalLoop=1;jettySize=auto;html=1;entryX=0;entryY=0.5;entryDx=0;entryDy=0;" edge="1" parent="1" source="BTSxETkFsqKTAE7wOmVA-25" target="BTSxETkFsqKTAE7wOmVA-32">
          <mxGeometry relative="1" as="geometry" />
        </mxCell>
        <mxCell id="BTSxETkFsqKTAE7wOmVA-25" value="&lt;div&gt;search(query)&lt;/div&gt;&lt;div&gt;&lt;br&gt;&lt;/div&gt;" style="rounded=1;whiteSpace=wrap;html=1;" vertex="1" parent="1">
          <mxGeometry x="87" y="1802" width="140" height="76" as="geometry" />
        </mxCell>
        <mxCell id="BTSxETkFsqKTAE7wOmVA-26" value="&lt;b&gt;Search Repository&lt;/b&gt;" style="text;html=1;align=center;verticalAlign=middle;resizable=0;points=[];autosize=1;strokeColor=none;fillColor=none;" vertex="1" parent="1">
          <mxGeometry x="98" y="1778" width="124" height="26" as="geometry" />
        </mxCell>
        <mxCell id="BTSxETkFsqKTAE7wOmVA-29" value="&lt;div&gt;search(query)&lt;/div&gt;" style="rounded=1;whiteSpace=wrap;html=1;" vertex="1" parent="1">
          <mxGeometry x="339" y="1802" width="140" height="76" as="geometry" />
        </mxCell>
        <mxCell id="BTSxETkFsqKTAE7wOmVA-30" value="&lt;b&gt;SearchService&lt;/b&gt;" style="text;html=1;align=center;verticalAlign=middle;resizable=0;points=[];autosize=1;strokeColor=none;fillColor=none;" vertex="1" parent="1">
          <mxGeometry x="355" y="1774" width="101" height="26" as="geometry" />
        </mxCell>
        <mxCell id="BTSxETkFsqKTAE7wOmVA-32" value="&lt;div&gt;autosuggest()&lt;/div&gt;" style="rounded=1;whiteSpace=wrap;html=1;" vertex="1" parent="1">
          <mxGeometry x="92" y="1966" width="140" height="81" as="geometry" />
        </mxCell>
        <mxCell id="BTSxETkFsqKTAE7wOmVA-33" value="&lt;b&gt;AutoSearchManager&lt;/b&gt;" style="text;html=1;align=center;verticalAlign=middle;resizable=0;points=[];autosize=1;strokeColor=none;fillColor=none;" vertex="1" parent="1">
          <mxGeometry x="95" y="1940" width="135" height="26" as="geometry" />
        </mxCell>
        <mxCell id="BTSxETkFsqKTAE7wOmVA-34" value="mapToDomain() mapFromDomain()" style="rounded=1;whiteSpace=wrap;html=1;" vertex="1" parent="1">
          <mxGeometry x="92" y="2120" width="138" height="99" as="geometry" />
        </mxCell>
        <mxCell id="BTSxETkFsqKTAE7wOmVA-35" value="&lt;b&gt;Mapper&lt;/b&gt;" style="text;html=1;align=center;verticalAlign=middle;resizable=0;points=[];autosize=1;strokeColor=none;fillColor=none;" vertex="1" parent="1">
          <mxGeometry x="123.5" y="2118" width="61" height="26" as="geometry" />
        </mxCell>
        <mxCell id="BTSxETkFsqKTAE7wOmVA-38" style="edgeStyle=orthogonalEdgeStyle;rounded=0;orthogonalLoop=1;jettySize=auto;html=1;entryX=0.631;entryY=0.096;entryDx=0;entryDy=0;entryPerimeter=0;" edge="1" parent="1" source="BTSxETkFsqKTAE7wOmVA-32" target="BTSxETkFsqKTAE7wOmVA-35">
          <mxGeometry relative="1" as="geometry" />
        </mxCell>
      </root>
    </mxGraphModel>
  </diagram>
</mxfile>
